<svg width="14" height="6" viewBox="0 0 14 6" fill="none" xmlns="http://www.w3.org/2000/svg">
<path opacity="0.967" fill-rule="evenodd" clip-rule="evenodd" d="M0.00349984 3.11322C0.00349984 3.03564 0.00349984 2.95804 0.00349984 2.88046C1.07032 1.93536 2.14321 0.992694 3.22218 0.0524768C3.51091 -0.0650417 3.68823 0.0125593 3.7542 0.285233C3.73882 0.327385 3.72552 0.370072 3.71429 0.413248C2.84091 1.17746 1.96751 1.94169 1.09413 2.70589C5.19949 2.71364 9.30488 2.72142 13.4102 2.72917C13.5023 2.75954 13.5733 2.80996 13.623 2.88046C13.623 2.95804 13.623 3.03564 13.623 3.11322C13.5733 3.18372 13.5023 3.23413 13.4102 3.26451C9.31374 3.27226 5.21723 3.28003 1.12073 3.28778C1.96676 4.05136 2.82243 4.80782 3.68769 5.55715C3.81213 5.79729 3.72789 5.94469 3.43499 5.99939C3.37053 5.9972 3.30847 5.98556 3.24878 5.96448C2.16095 5.01651 1.07918 4.06607 0.00349984 3.11322Z" fill="#222222"/>
</svg>
